solid Cherry MX demo strip
facet normal 0.0 0.0 1.0
outer loop
vertex 576.730380545373 270.387249065924 12.1999999999996
vertex 578.290380545373 271.947249065924 12.1999999999996
vertex 576.730380545373 423.267249065924 12.1999999999996
endloop
endfacet
facet normal 0.0 0.0 1.0
outer loop
vertex 578.290380545373 271.947249065924 12.1999999999996
vertex 576.730380545373 270.387249065924 12.1999999999996
vertex 598.570380545373 270.387249065924 12.1999999999996
endloop
endfacet
facet normal 0.0 0.0 1.0
outer loop
vertex 578.290380545373 271.947249065924 12.1999999999996
vertex 598.570380545373 270.387249065924 12.1999999999996
vertex 597.010380545373 271.947249065924 12.1999999999996
endloop
endfacet
facet normal 0.0 0.0 1.0
outer loop
vertex 597.010380545373 271.947249065924 12.1999999999996
vertex 598.570380545373 270.387249065924 12.1999999999996
vertex 597.010380545373 289.887249065924 12.1999999999996
endloop
endfacet
facet normal 0.0 0.0 1.0
outer loop
vertex 597.010380545373 289.887249065924 12.1999999999996
vertex 598.570380545373 270.387249065924 12.1999999999996
vertex 597.010380545373 291.447249065924 12.1999999999996
endloop
endfacet
facet normal 0.0 0.0 1.0
outer loop
vertex 597.010380545373 291.447249065924 12.1999999999996
vertex 598.570380545373 270.387249065924 12.1999999999996
vertex 597.010380545373 308.607249065924 12.1999999999996
endloop
endfacet
facet normal 0.0 0.0 1.0
outer loop
vertex 597.010380545373 308.607249065924 12.1999999999996
vertex 598.570380545373 270.387249065924 12.1999999999996
vertex 597.010380545373 310.167249065924 12.1999999999996
endloop
endfacet
facet normal 0.0 0.0 1.0
outer loop
vertex 597.010380545373 310.167249065924 12.1999999999996
vertex 598.570380545373 270.387249065924 12.1999999999996
vertex 597.010380545373 327.327249065924 12.1999999999996
endloop
endfacet
facet normal 0.0 0.0 1.0
outer loop
vertex 597.010380545373 327.327249065924 12.1999999999996
vertex 598.570380545373 270.387249065924 12.1999999999996
vertex 597.010380545373 328.887249065924 12.1999999999996
endloop
endfacet
facet normal 0.0 0.0 1.0
outer loop
vertex 597.010380545373 328.887249065924 12.1999999999996
vertex 598.570380545373 270.387249065924 12.1999999999996
vertex 597.010380545373 346.047249065924 12.1999999999996
endloop
endfacet
facet normal 0.0 0.0 1.0
outer loop
vertex 597.010380545373 346.047249065924 12.1999999999996
vertex 598.570380545373 270.387249065924 12.1999999999996
vertex 597.010380545373 347.607249065924 12.1999999999996
endloop
endfacet
facet normal 0.0 0.0 1.0
outer loop
vertex 597.010380545373 347.607249065924 12.1999999999996
vertex 598.570380545373 270.387249065924 12.1999999999996
vertex 597.010380545373 364.767249065924 12.1999999999996
endloop
endfacet
facet normal 0.0 0.0 1.0
outer loop
vertex 597.010380545373 364.767249065924 12.1999999999996
vertex 598.570380545373 270.387249065924 12.1999999999996
vertex 597.010380545373 366.327249065924 12.1999999999996
endloop
endfacet
facet normal 0.0 0.0 1.0
outer loop
vertex 597.010380545373 366.327249065924 12.1999999999996
vertex 598.570380545373 270.387249065924 12.1999999999996
vertex 597.010380545373 383.487249065924 12.1999999999996
endloop
endfacet
facet normal 0.0 0.0 1.0
outer loop
vertex 597.010380545373 383.487249065924 12.1999999999996
vertex 598.570380545373 270.387249065924 12.1999999999996
vertex 597.010380545373 385.047249065924 12.1999999999996
endloop
endfacet
facet normal 0.0 0.0 1.0
outer loop
vertex 597.010380545373 385.047249065924 12.1999999999996
vertex 598.570380545373 270.387249065924 12.1999999999996
vertex 597.010380545373 402.207249065924 12.1999999999996
endloop
endfacet
facet normal 0.0 0.0 1.0
outer loop
vertex 597.010380545373 402.207249065924 12.1999999999996
vertex 598.570380545373 270.387249065924 12.1999999999996
vertex 597.010380545373 403.767249065924 12.1999999999996
endloop
endfacet
facet normal 0.0 0.0 1.0
outer loop
vertex 597.010380545373 403.767249065924 12.1999999999996
vertex 598.570380545373 270.387249065924 12.1999999999996
vertex 597.010380545373 421.707249065924 12.1999999999996
endloop
endfacet
facet normal 0.0 0.0 1.0
outer loop
vertex 576.730380545373 423.267249065924 12.1999999999996
vertex 578.290380545373 421.707249065924 12.1999999999996
vertex 598.570380545373 423.267249065924 12.1999999999996
endloop
endfacet
facet normal 0.0 0.0 1.0
outer loop
vertex 578.290380545373 421.707249065924 12.1999999999996
vertex 576.730380545373 423.267249065924 12.1999999999996
vertex 578.290380545373 271.947249065924 12.1999999999996
endloop
endfacet
facet normal 0.0 0.0 1.0
outer loop
vertex 578.290380545373 421.707249065924 12.1999999999996
vertex 578.290380545373 271.947249065924 12.1999999999996
vertex 578.290380545373 289.887249065924 12.1999999999996
endloop
endfacet
facet normal 0.0 0.0 1.0
outer loop
vertex 578.290380545373 421.707249065924 12.1999999999996
vertex 578.290380545373 289.887249065924 12.1999999999996
vertex 578.290380545373 291.447249065924 12.1999999999996
endloop
endfacet
facet normal 0.0 0.0 1.0
outer loop
vertex 578.290380545373 421.707249065924 12.1999999999996
vertex 578.290380545373 291.447249065924 12.1999999999996
vertex 578.290380545373 308.607249065924 12.1999999999996
endloop
endfacet
facet normal 0.0 0.0 1.0
outer loop
vertex 578.290380545373 421.707249065924 12.1999999999996
vertex 578.290380545373 308.607249065924 12.1999999999996
vertex 578.290380545373 310.167249065924 12.1999999999996
endloop
endfacet
facet normal 0.0 0.0 1.0
outer loop
vertex 578.290380545373 421.707249065924 12.1999999999996
vertex 578.290380545373 310.167249065924 12.1999999999996
vertex 578.290380545373 327.327249065924 12.1999999999996
endloop
endfacet
facet normal 0.0 0.0 1.0
outer loop
vertex 578.290380545373 421.707249065924 12.1999999999996
vertex 578.290380545373 327.327249065924 12.1999999999996
vertex 578.290380545373 328.887249065924 12.1999999999996
endloop
endfacet
facet normal 0.0 0.0 1.0
outer loop
vertex 578.290380545373 421.707249065924 12.1999999999996
vertex 578.290380545373 328.887249065924 12.1999999999996
vertex 578.290380545373 346.047249065924 12.1999999999996
endloop
endfacet
facet normal 0.0 0.0 1.0
outer loop
vertex 578.290380545373 421.707249065924 12.1999999999996
vertex 578.290380545373 346.047249065924 12.1999999999996
vertex 578.290380545373 347.607249065924 12.1999999999996
endloop
endfacet
facet normal 0.0 0.0 1.0
outer loop
vertex 578.290380545373 421.707249065924 12.1999999999996
vertex 578.290380545373 347.607249065924 12.1999999999996
vertex 578.290380545373 364.767249065924 12.1999999999996
endloop
endfacet
facet normal 0.0 0.0 1.0
outer loop
vertex 578.290380545373 421.707249065924 12.1999999999996
vertex 578.290380545373 364.767249065924 12.1999999999996
vertex 578.290380545373 366.327249065924 12.1999999999996
endloop
endfacet
facet normal 0.0 0.0 1.0
outer loop
vertex 578.290380545373 421.707249065924 12.1999999999996
vertex 578.290380545373 366.327249065924 12.1999999999996
vertex 578.290380545373 383.487249065924 12.1999999999996
endloop
endfacet
facet normal 0.0 0.0 1.0
outer loop
vertex 578.290380545373 421.707249065924 12.1999999999996
vertex 578.290380545373 383.487249065924 12.1999999999996
vertex 578.290380545373 385.047249065924 12.1999999999996
endloop
endfacet
facet normal 0.0 0.0 1.0
outer loop
vertex 578.290380545373 421.707249065924 12.1999999999996
vertex 578.290380545373 385.047249065924 12.1999999999996
vertex 578.290380545373 402.207249065924 12.1999999999996
endloop
endfacet
facet normal 0.0 0.0 1.0
outer loop
vertex 578.290380545373 421.707249065924 12.1999999999996
vertex 578.290380545373 402.207249065924 12.1999999999996
vertex 578.290380545373 403.767249065924 12.1999999999996
endloop
endfacet
facet normal 0.0 0.0 1.0
outer loop
vertex 598.570380545373 423.267249065924 12.1999999999996
vertex 578.290380545373 421.707249065924 12.1999999999996
vertex 597.010380545373 421.707249065924 12.1999999999996
endloop
endfacet
facet normal 0.0 0.0 1.0
outer loop
vertex 598.570380545373 423.267249065924 12.1999999999996
vertex 597.010380545373 421.707249065924 12.1999999999996
vertex 598.570380545373 270.387249065924 12.1999999999996
endloop
endfacet
facet normal 0.0 0.0 1.0
outer loop
vertex 597.010380545373 402.207249065924 12.1999999999996
vertex 578.290380545373 403.767249065924 12.1999999999996
vertex 578.290380545373 402.207249065924 12.1999999999996
endloop
endfacet
facet normal 0.0 0.0 1.0
outer loop
vertex 578.290380545373 403.767249065924 12.1999999999996
vertex 597.010380545373 402.207249065924 12.1999999999996
vertex 597.010380545373 403.767249065924 12.1999999999996
endloop
endfacet
facet normal 0.0 0.0 1.0
outer loop
vertex 597.010380545373 383.487249065924 12.1999999999996
vertex 578.290380545373 385.047249065924 12.1999999999996
vertex 578.290380545373 383.487249065924 12.1999999999996
endloop
endfacet
facet normal 0.0 0.0 1.0
outer loop
vertex 578.290380545373 385.047249065924 12.1999999999996
vertex 597.010380545373 383.487249065924 12.1999999999996
vertex 597.010380545373 385.047249065924 12.1999999999996
endloop
endfacet
facet normal 0.0 0.0 1.0
outer loop
vertex 597.010380545373 364.767249065924 12.1999999999996
vertex 578.290380545373 366.327249065924 12.1999999999996
vertex 578.290380545373 364.767249065924 12.1999999999996
endloop
endfacet
facet normal 0.0 0.0 1.0
outer loop
vertex 578.290380545373 366.327249065924 12.1999999999996
vertex 597.010380545373 364.767249065924 12.1999999999996
vertex 597.010380545373 366.327249065924 12.1999999999996
endloop
endfacet
facet normal 0.0 0.0 1.0
outer loop
vertex 597.010380545373 346.047249065924 12.1999999999996
vertex 578.290380545373 347.607249065924 12.1999999999996
vertex 578.290380545373 346.047249065924 12.1999999999996
endloop
endfacet
facet normal 0.0 0.0 1.0
outer loop
vertex 578.290380545373 347.607249065924 12.1999999999996
vertex 597.010380545373 346.047249065924 12.1999999999996
vertex 597.010380545373 347.607249065924 12.1999999999996
endloop
endfacet
facet normal 0.0 0.0 1.0
outer loop
vertex 597.010380545373 327.327249065924 12.1999999999996
vertex 578.290380545373 328.887249065924 12.1999999999996
vertex 578.290380545373 327.327249065924 12.1999999999996
endloop
endfacet
facet normal 0.0 0.0 1.0
outer loop
vertex 578.290380545373 328.887249065924 12.1999999999996
vertex 597.010380545373 327.327249065924 12.1999999999996
vertex 597.010380545373 328.887249065924 12.1999999999996
endloop
endfacet
facet normal 0.0 0.0 1.0
outer loop
vertex 597.010380545373 308.607249065924 12.1999999999996
vertex 578.290380545373 310.167249065924 12.1999999999996
vertex 578.290380545373 308.607249065924 12.1999999999996
endloop
endfacet
facet normal 0.0 0.0 1.0
outer loop
vertex 578.290380545373 310.167249065924 12.1999999999996
vertex 597.010380545373 308.607249065924 12.1999999999996
vertex 597.010380545373 310.167249065924 12.1999999999996
endloop
endfacet
facet normal 0.0 0.0 1.0
outer loop
vertex 597.010380545373 289.887249065924 12.1999999999996
vertex 578.290380545373 291.447249065924 12.1999999999996
vertex 578.290380545373 289.887249065924 12.1999999999996
endloop
endfacet
facet normal 0.0 0.0 1.0
outer loop
vertex 578.290380545373 291.447249065924 12.1999999999996
vertex 597.010380545373 289.887249065924 12.1999999999996
vertex 597.010380545373 291.447249065924 12.1999999999996
endloop
endfacet
facet normal 0.0 -1.0 3.01166267071777e-18
outer loop
vertex 598.570380545373 270.387249065924 12.1999999999996
vertex 576.730380545373 270.387249065924 2.19999999999964
vertex 598.570380545373 270.387249065924 2.19999999999964
endloop
endfacet
facet normal 0.0 -1.0 3.01166267071777e-18
outer loop
vertex 576.730380545373 270.387249065924 2.19999999999964
vertex 598.570380545373 270.387249065924 12.1999999999996
vertex 576.730380545373 270.387249065924 12.1999999999996
endloop
endfacet
facet normal -1.0 0.0 0.0
outer loop
vertex 576.730380545373 423.267249065924 12.1999999999996
vertex 576.730380545373 270.387249065924 2.19999999999964
vertex 576.730380545373 270.387249065924 12.1999999999996
endloop
endfacet
facet normal -1.0 0.0 0.0
outer loop
vertex 576.730380545373 270.387249065924 2.19999999999964
vertex 576.730380545373 423.267249065924 12.1999999999996
vertex 576.730380545373 423.267249065924 2.19999999999964
endloop
endfacet
facet normal 0.0 1.0 0.0
outer loop
vertex 576.730380545373 423.267249065924 12.1999999999996
vertex 598.570380545373 423.267249065924 2.19999999999964
vertex 576.730380545373 423.267249065924 2.19999999999964
endloop
endfacet
facet normal 0.0 1.0 0.0
outer loop
vertex 598.570380545373 423.267249065924 2.19999999999964
vertex 576.730380545373 423.267249065924 12.1999999999996
vertex 598.570380545373 423.267249065924 12.1999999999996
endloop
endfacet
facet normal 1.0 0.0 0.0
outer loop
vertex 598.570380545373 423.267249065924 2.19999999999964
vertex 598.570380545373 270.387249065924 12.1999999999996
vertex 598.570380545373 270.387249065924 2.19999999999964
endloop
endfacet
facet normal 1.0 0.0 0.0
outer loop
vertex 598.570380545373 270.387249065924 12.1999999999996
vertex 598.570380545373 423.267249065924 2.19999999999964
vertex 598.570380545373 423.267249065924 12.1999999999996
endloop
endfacet
facet normal -1.0 0.0 0.0
outer loop
vertex 594.670380545373 288.327249065924 3.17999999999964
vertex 594.670380545373 274.287249065924 2.19999999999964
vertex 594.670380545373 274.287249065924 3.17999999999964
endloop
endfacet
facet normal -1.0 0.0 0.0
outer loop
vertex 594.670380545373 274.287249065924 2.19999999999964
vertex 594.670380545373 288.327249065924 3.17999999999964
vertex 594.670380545373 288.327249065924 2.19999999999964
endloop
endfacet
facet normal 0.0 -1.0 0.0
outer loop
vertex 594.670380545373 288.327249065924 3.17999999999964
vertex 580.630380545373 288.327249065924 2.19999999999964
vertex 594.670380545373 288.327249065924 2.19999999999964
endloop
endfacet
facet normal 0.0 -1.0 0.0
outer loop
vertex 580.630380545373 288.327249065924 2.19999999999964
vertex 594.670380545373 288.327249065924 3.17999999999964
vertex 580.630380545373 288.327249065924 3.17999999999964
endloop
endfacet
facet normal 1.0 0.0 0.0
outer loop
vertex 580.630380545373 288.327249065924 2.19999999999964
vertex 580.630380545373 274.287249065924 3.17999999999964
vertex 580.630380545373 274.287249065924 2.19999999999964
endloop
endfacet
facet normal 1.0 0.0 0.0
outer loop
vertex 580.630380545373 274.287249065924 3.17999999999964
vertex 580.630380545373 288.327249065924 2.19999999999964
vertex 580.630380545373 288.327249065924 3.17999999999964
endloop
endfacet
facet normal 0.0 1.0 0.0
outer loop
vertex 580.630380545373 274.287249065924 3.17999999999964
vertex 594.670380545373 274.287249065924 2.19999999999964
vertex 580.630380545373 274.287249065924 2.19999999999964
endloop
endfacet
facet normal 0.0 1.0 0.0
outer loop
vertex 594.670380545373 274.287249065924 2.19999999999964
vertex 580.630380545373 274.287249065924 3.17999999999964
vertex 594.670380545373 274.287249065924 3.17999999999964
endloop
endfacet
facet normal -1.0 0.0 0.0
outer loop
vertex 594.670380545373 344.487249065924 3.17999999999964
vertex 594.670380545373 330.447249065924 2.19999999999964
vertex 594.670380545373 330.447249065924 3.17999999999964
endloop
endfacet
facet normal -1.0 0.0 0.0
outer loop
vertex 594.670380545373 330.447249065924 2.19999999999964
vertex 594.670380545373 344.487249065924 3.17999999999964
vertex 594.670380545373 344.487249065924 2.19999999999964
endloop
endfacet
facet normal 0.0 -1.0 0.0
outer loop
vertex 594.670380545373 344.487249065924 3.17999999999964
vertex 580.630380545373 344.487249065924 2.19999999999964
vertex 594.670380545373 344.487249065924 2.19999999999964
endloop
endfacet
facet normal 0.0 -1.0 0.0
outer loop
vertex 580.630380545373 344.487249065924 2.19999999999964
vertex 594.670380545373 344.487249065924 3.17999999999964
vertex 580.630380545373 344.487249065924 3.17999999999964
endloop
endfacet
facet normal 1.0 0.0 0.0
outer loop
vertex 580.630380545373 344.487249065924 2.19999999999964
vertex 580.630380545373 330.447249065924 3.17999999999964
vertex 580.630380545373 330.447249065924 2.19999999999964
endloop
endfacet
facet normal 1.0 0.0 0.0
outer loop
vertex 580.630380545373 330.447249065924 3.17999999999964
vertex 580.630380545373 344.487249065924 2.19999999999964
vertex 580.630380545373 344.487249065924 3.17999999999964
endloop
endfacet
facet normal 0.0 1.0 0.0
outer loop
vertex 580.630380545373 330.447249065924 3.17999999999964
vertex 594.670380545373 330.447249065924 2.19999999999964
vertex 580.630380545373 330.447249065924 2.19999999999964
endloop
endfacet
facet normal 0.0 1.0 0.0
outer loop
vertex 594.670380545373 330.447249065924 2.19999999999964
vertex 580.630380545373 330.447249065924 3.17999999999964
vertex 594.670380545373 330.447249065924 3.17999999999964
endloop
endfacet
facet normal -1.0 0.0 0.0
outer loop
vertex 594.670380545373 363.207249065924 3.17999999999964
vertex 594.670380545373 349.167249065924 2.19999999999964
vertex 594.670380545373 349.167249065924 3.17999999999964
endloop
endfacet
facet normal -1.0 0.0 0.0
outer loop
vertex 594.670380545373 349.167249065924 2.19999999999964
vertex 594.670380545373 363.207249065924 3.17999999999964
vertex 594.670380545373 363.207249065924 2.19999999999964
endloop
endfacet
facet normal 0.0 -1.0 0.0
outer loop
vertex 594.670380545373 363.207249065924 3.17999999999964
vertex 580.630380545373 363.207249065924 2.19999999999964
vertex 594.670380545373 363.207249065924 2.19999999999964
endloop
endfacet
facet normal 0.0 -1.0 0.0
outer loop
vertex 580.630380545373 363.207249065924 2.19999999999964
vertex 594.670380545373 363.207249065924 3.17999999999964
vertex 580.630380545373 363.207249065924 3.17999999999964
endloop
endfacet
facet normal 1.0 0.0 0.0
outer loop
vertex 580.630380545373 363.207249065924 2.19999999999964
vertex 580.630380545373 349.167249065924 3.17999999999964
vertex 580.630380545373 349.167249065924 2.19999999999964
endloop
endfacet
facet normal 1.0 0.0 0.0
outer loop
vertex 580.630380545373 349.167249065924 3.17999999999964
vertex 580.630380545373 363.207249065924 2.19999999999964
vertex 580.630380545373 363.207249065924 3.17999999999964
endloop
endfacet
facet normal 0.0 1.0 0.0
outer loop
vertex 580.630380545373 349.167249065924 3.17999999999964
vertex 594.670380545373 349.167249065924 2.19999999999964
vertex 580.630380545373 349.167249065924 2.19999999999964
endloop
endfacet
facet normal 0.0 1.0 0.0
outer loop
vertex 594.670380545373 349.167249065924 2.19999999999964
vertex 580.630380545373 349.167249065924 3.17999999999964
vertex 594.670380545373 349.167249065924 3.17999999999964
endloop
endfacet
facet normal -1.0 0.0 0.0
outer loop
vertex 594.670380545373 400.647249065924 3.17999999999964
vertex 594.670380545373 386.607249065924 2.19999999999964
vertex 594.670380545373 386.607249065924 3.17999999999964
endloop
endfacet
facet normal -1.0 0.0 0.0
outer loop
vertex 594.670380545373 386.607249065924 2.19999999999964
vertex 594.670380545373 400.647249065924 3.17999999999964
vertex 594.670380545373 400.647249065924 2.19999999999964
endloop
endfacet
facet normal 0.0 -1.0 0.0
outer loop
vertex 594.670380545373 400.647249065924 3.17999999999964
vertex 580.630380545373 400.647249065924 2.19999999999964
vertex 594.670380545373 400.647249065924 2.19999999999964
endloop
endfacet
facet normal 0.0 -1.0 0.0
outer loop
vertex 580.630380545373 400.647249065924 2.19999999999964
vertex 594.670380545373 400.647249065924 3.17999999999964
vertex 580.630380545373 400.647249065924 3.17999999999964
endloop
endfacet
facet normal 1.0 0.0 0.0
outer loop
vertex 580.630380545373 400.647249065924 2.19999999999964
vertex 580.630380545373 386.607249065924 3.17999999999964
vertex 580.630380545373 386.607249065924 2.19999999999964
endloop
endfacet
facet normal 1.0 0.0 0.0
outer loop
vertex 580.630380545373 386.607249065924 3.17999999999964
vertex 580.630380545373 400.647249065924 2.19999999999964
vertex 580.630380545373 400.647249065924 3.17999999999964
endloop
endfacet
facet normal 0.0 1.0 0.0
outer loop
vertex 580.630380545373 386.607249065924 3.17999999999964
vertex 594.670380545373 386.607249065924 2.19999999999964
vertex 580.630380545373 386.607249065924 2.19999999999964
endloop
endfacet
facet normal 0.0 1.0 0.0
outer loop
vertex 594.670380545373 386.607249065924 2.19999999999964
vertex 580.630380545373 386.607249065924 3.17999999999964
vertex 594.670380545373 386.607249065924 3.17999999999964
endloop
endfacet
facet normal 1.0 0.0 0.0
outer loop
vertex 580.630380545373 419.367249065924 2.19999999999964
vertex 580.630380545373 405.327249065924 3.17999999999964
vertex 580.630380545373 405.327249065924 2.19999999999964
endloop
endfacet
facet normal 1.0 0.0 0.0
outer loop
vertex 580.630380545373 405.327249065924 3.17999999999964
vertex 580.630380545373 419.367249065924 2.19999999999964
vertex 580.630380545373 419.367249065924 3.17999999999964
endloop
endfacet
facet normal 0.0 1.0 0.0
outer loop
vertex 580.630380545373 405.327249065924 3.17999999999964
vertex 594.670380545373 405.327249065924 2.19999999999964
vertex 580.630380545373 405.327249065924 2.19999999999964
endloop
endfacet
facet normal 0.0 1.0 0.0
outer loop
vertex 594.670380545373 405.327249065924 2.19999999999964
vertex 580.630380545373 405.327249065924 3.17999999999964
vertex 594.670380545373 405.327249065924 3.17999999999964
endloop
endfacet
facet normal -1.0 0.0 0.0
outer loop
vertex 594.670380545373 419.367249065924 3.17999999999964
vertex 594.670380545373 405.327249065924 2.19999999999964
vertex 594.670380545373 405.327249065924 3.17999999999964
endloop
endfacet
facet normal -1.0 0.0 0.0
outer loop
vertex 594.670380545373 405.327249065924 2.19999999999964
vertex 594.670380545373 419.367249065924 3.17999999999964
vertex 594.670380545373 419.367249065924 2.19999999999964
endloop
endfacet
facet normal 0.0 -1.0 0.0
outer loop
vertex 594.670380545373 419.367249065924 3.17999999999964
vertex 580.630380545373 419.367249065924 2.19999999999964
vertex 594.670380545373 419.367249065924 2.19999999999964
endloop
endfacet
facet normal 0.0 -1.0 0.0
outer loop
vertex 580.630380545373 419.367249065924 2.19999999999964
vertex 594.670380545373 419.367249065924 3.17999999999964
vertex 580.630380545373 419.367249065924 3.17999999999964
endloop
endfacet
facet normal 0.0 0.0 1.0
outer loop
vertex 578.290380545373 385.047249065924 3.17999999999964
vertex 580.630380545373 386.607249065924 3.17999999999964
vertex 578.290380545373 402.207249065924 3.17999999999964
endloop
endfacet
facet normal 0.0 0.0 1.0
outer loop
vertex 580.630380545373 386.607249065924 3.17999999999964
vertex 578.290380545373 385.047249065924 3.17999999999964
vertex 597.010380545373 385.047249065924 3.17999999999964
endloop
endfacet
facet normal 0.0 0.0 1.0
outer loop
vertex 580.630380545373 386.607249065924 3.17999999999964
vertex 597.010380545373 385.047249065924 3.17999999999964
vertex 594.670380545373 386.607249065924 3.17999999999964
endloop
endfacet
facet normal 0.0 0.0 1.0
outer loop
vertex 594.670380545373 386.607249065924 3.17999999999964
vertex 597.010380545373 385.047249065924 3.17999999999964
vertex 594.670380545373 400.647249065924 3.17999999999964
endloop
endfacet
facet normal 0.0 0.0 1.0
outer loop
vertex 578.290380545373 402.207249065924 3.17999999999964
vertex 580.630380545373 400.647249065924 3.17999999999964
vertex 597.010380545373 402.207249065924 3.17999999999964
endloop
endfacet
facet normal 0.0 0.0 1.0
outer loop
vertex 580.630380545373 400.647249065924 3.17999999999964
vertex 578.290380545373 402.207249065924 3.17999999999964
vertex 580.630380545373 386.607249065924 3.17999999999964
endloop
endfacet
facet normal 0.0 0.0 1.0
outer loop
vertex 597.010380545373 402.207249065924 3.17999999999964
vertex 580.630380545373 400.647249065924 3.17999999999964
vertex 594.670380545373 400.647249065924 3.17999999999964
endloop
endfacet
facet normal 0.0 0.0 1.0
outer loop
vertex 597.010380545373 402.207249065924 3.17999999999964
vertex 594.670380545373 400.647249065924 3.17999999999964
vertex 597.010380545373 385.047249065924 3.17999999999964
endloop
endfacet
facet normal 1.0 0.0 0.0
outer loop
vertex 578.290380545373 402.207249065924 3.17999999999964
vertex 578.290380545373 385.047249065924 12.1999999999996
vertex 578.290380545373 385.047249065924 3.17999999999964
endloop
endfacet
facet normal 1.0 0.0 0.0
outer loop
vertex 578.290380545373 385.047249065924 12.1999999999996
vertex 578.290380545373 402.207249065924 3.17999999999964
vertex 578.290380545373 402.207249065924 12.1999999999996
endloop
endfacet
facet normal -0.0 1.0 -0.0
outer loop
vertex 578.290380545373 385.047249065924 12.1999999999996
vertex 597.010380545373 385.047249065924 3.17999999999964
vertex 578.290380545373 385.047249065924 3.17999999999964
endloop
endfacet
facet normal -0.0 1.0 -0.0
outer loop
vertex 597.010380545373 385.047249065924 3.17999999999964
vertex 578.290380545373 385.047249065924 12.1999999999996
vertex 597.010380545373 385.047249065924 12.1999999999996
endloop
endfacet
facet normal -1.0 0.0 -0.0
outer loop
vertex 597.010380545373 402.207249065924 12.1999999999996
vertex 597.010380545373 385.047249065924 3.17999999999964
vertex 597.010380545373 385.047249065924 12.1999999999996
endloop
endfacet
facet normal -1.0 0.0 -0.0
outer loop
vertex 597.010380545373 385.047249065924 3.17999999999964
vertex 597.010380545373 402.207249065924 12.1999999999996
vertex 597.010380545373 402.207249065924 3.17999999999964
endloop
endfacet
facet normal 0.0 -1.0 0.0
outer loop
vertex 597.010380545373 402.207249065924 12.1999999999996
vertex 578.290380545373 402.207249065924 3.17999999999964
vertex 597.010380545373 402.207249065924 3.17999999999964
endloop
endfacet
facet normal 0.0 -1.0 0.0
outer loop
vertex 578.290380545373 402.207249065924 3.17999999999964
vertex 597.010380545373 402.207249065924 12.1999999999996
vertex 578.290380545373 402.207249065924 12.1999999999996
endloop
endfacet
facet normal 0.0 0.0 1.0
outer loop
vertex 578.290380545373 403.767249065924 3.17999999999964
vertex 580.630380545373 405.327249065924 3.17999999999964
vertex 578.290380545373 421.707249065924 3.17999999999964
endloop
endfacet
facet normal 0.0 0.0 1.0
outer loop
vertex 580.630380545373 405.327249065924 3.17999999999964
vertex 578.290380545373 403.767249065924 3.17999999999964
vertex 597.010380545373 403.767249065924 3.17999999999964
endloop
endfacet
facet normal 0.0 0.0 1.0
outer loop
vertex 580.630380545373 405.327249065924 3.17999999999964
vertex 597.010380545373 403.767249065924 3.17999999999964
vertex 594.670380545373 405.327249065924 3.17999999999964
endloop
endfacet
facet normal 0.0 0.0 1.0
outer loop
vertex 594.670380545373 405.327249065924 3.17999999999964
vertex 597.010380545373 403.767249065924 3.17999999999964
vertex 594.670380545373 419.367249065924 3.17999999999964
endloop
endfacet
facet normal 0.0 0.0 1.0
outer loop
vertex 578.290380545373 421.707249065924 3.17999999999964
vertex 580.630380545373 419.367249065924 3.17999999999964
vertex 597.010380545373 421.707249065924 3.17999999999964
endloop
endfacet
facet normal 0.0 0.0 1.0
outer loop
vertex 580.630380545373 419.367249065924 3.17999999999964
vertex 578.290380545373 421.707249065924 3.17999999999964
vertex 580.630380545373 405.327249065924 3.17999999999964
endloop
endfacet
facet normal 0.0 0.0 1.0
outer loop
vertex 597.010380545373 421.707249065924 3.17999999999964
vertex 580.630380545373 419.367249065924 3.17999999999964
vertex 594.670380545373 419.367249065924 3.17999999999964
endloop
endfacet
facet normal 0.0 0.0 1.0
outer loop
vertex 597.010380545373 421.707249065924 3.17999999999964
vertex 594.670380545373 419.367249065924 3.17999999999964
vertex 597.010380545373 403.767249065924 3.17999999999964
endloop
endfacet
facet normal 1.0 0.0 0.0
outer loop
vertex 578.290380545373 421.707249065924 3.17999999999964
vertex 578.290380545373 403.767249065924 12.1999999999996
vertex 578.290380545373 403.767249065924 3.17999999999964
endloop
endfacet
facet normal 1.0 0.0 0.0
outer loop
vertex 578.290380545373 403.767249065924 12.1999999999996
vertex 578.290380545373 421.707249065924 3.17999999999964
vertex 578.290380545373 421.707249065924 12.1999999999996
endloop
endfacet
facet normal -0.0 1.0 -0.0
outer loop
vertex 578.290380545373 403.767249065924 12.1999999999996
vertex 597.010380545373 403.767249065924 3.17999999999964
vertex 578.290380545373 403.767249065924 3.17999999999964
endloop
endfacet
facet normal -0.0 1.0 -0.0
outer loop
vertex 597.010380545373 403.767249065924 3.17999999999964
vertex 578.290380545373 403.767249065924 12.1999999999996
vertex 597.010380545373 403.767249065924 12.1999999999996
endloop
endfacet
facet normal -1.0 0.0 -0.0
outer loop
vertex 597.010380545373 421.707249065924 12.1999999999996
vertex 597.010380545373 403.767249065924 3.17999999999964
vertex 597.010380545373 403.767249065924 12.1999999999996
endloop
endfacet
facet normal -1.0 0.0 -0.0
outer loop
vertex 597.010380545373 403.767249065924 3.17999999999964
vertex 597.010380545373 421.707249065924 12.1999999999996
vertex 597.010380545373 421.707249065924 3.17999999999964
endloop
endfacet
facet normal 0.0 -1.0 0.0
outer loop
vertex 597.010380545373 421.707249065924 12.1999999999996
vertex 578.290380545373 421.707249065924 3.17999999999964
vertex 597.010380545373 421.707249065924 3.17999999999964
endloop
endfacet
facet normal 0.0 -1.0 0.0
outer loop
vertex 578.290380545373 421.707249065924 3.17999999999964
vertex 597.010380545373 421.707249065924 12.1999999999996
vertex 578.290380545373 421.707249065924 12.1999999999996
endloop
endfacet
facet normal 1.0 0.0 0.0
outer loop
vertex 580.630380545373 381.927249065924 2.19999999999964
vertex 580.630380545373 367.887249065924 3.17999999999964
vertex 580.630380545373 367.887249065924 2.19999999999964
endloop
endfacet
facet normal 1.0 0.0 0.0
outer loop
vertex 580.630380545373 367.887249065924 3.17999999999964
vertex 580.630380545373 381.927249065924 2.19999999999964
vertex 580.630380545373 381.927249065924 3.17999999999964
endloop
endfacet
facet normal 0.0 -1.0 0.0
outer loop
vertex 594.670380545373 381.927249065924 3.17999999999964
vertex 580.630380545373 381.927249065924 2.19999999999964
vertex 594.670380545373 381.927249065924 2.19999999999964
endloop
endfacet
facet normal 0.0 -1.0 0.0
outer loop
vertex 580.630380545373 381.927249065924 2.19999999999964
vertex 594.670380545373 381.927249065924 3.17999999999964
vertex 580.630380545373 381.927249065924 3.17999999999964
endloop
endfacet
facet normal -1.0 0.0 0.0
outer loop
vertex 594.670380545373 381.927249065924 3.17999999999964
vertex 594.670380545373 367.887249065924 2.19999999999964
vertex 594.670380545373 367.887249065924 3.17999999999964
endloop
endfacet
facet normal -1.0 0.0 0.0
outer loop
vertex 594.670380545373 367.887249065924 2.19999999999964
vertex 594.670380545373 381.927249065924 3.17999999999964
vertex 594.670380545373 381.927249065924 2.19999999999964
endloop
endfacet
facet normal 0.0 1.0 0.0
outer loop
vertex 580.630380545373 367.887249065924 3.17999999999964
vertex 594.670380545373 367.887249065924 2.19999999999964
vertex 580.630380545373 367.887249065924 2.19999999999964
endloop
endfacet
facet normal 0.0 1.0 0.0
outer loop
vertex 594.670380545373 367.887249065924 2.19999999999964
vertex 580.630380545373 367.887249065924 3.17999999999964
vertex 594.670380545373 367.887249065924 3.17999999999964
endloop
endfacet
facet normal 0.0 0.0 1.0
outer loop
vertex 578.290380545373 366.327249065924 3.17999999999964
vertex 580.630380545373 367.887249065924 3.17999999999964
vertex 578.290380545373 383.487249065924 3.17999999999964
endloop
endfacet
facet normal 0.0 0.0 1.0
outer loop
vertex 580.630380545373 367.887249065924 3.17999999999964
vertex 578.290380545373 366.327249065924 3.17999999999964
vertex 597.010380545373 366.327249065924 3.17999999999964
endloop
endfacet
facet normal 0.0 0.0 1.0
outer loop
vertex 580.630380545373 367.887249065924 3.17999999999964
vertex 597.010380545373 366.327249065924 3.17999999999964
vertex 594.670380545373 367.887249065924 3.17999999999964
endloop
endfacet
facet normal 0.0 0.0 1.0
outer loop
vertex 594.670380545373 367.887249065924 3.17999999999964
vertex 597.010380545373 366.327249065924 3.17999999999964
vertex 594.670380545373 381.927249065924 3.17999999999964
endloop
endfacet
facet normal 0.0 0.0 1.0
outer loop
vertex 578.290380545373 383.487249065924 3.17999999999964
vertex 580.630380545373 381.927249065924 3.17999999999964
vertex 597.010380545373 383.487249065924 3.17999999999964
endloop
endfacet
facet normal 0.0 0.0 1.0
outer loop
vertex 580.630380545373 381.927249065924 3.17999999999964
vertex 578.290380545373 383.487249065924 3.17999999999964
vertex 580.630380545373 367.887249065924 3.17999999999964
endloop
endfacet
facet normal 0.0 0.0 1.0
outer loop
vertex 597.010380545373 383.487249065924 3.17999999999964
vertex 580.630380545373 381.927249065924 3.17999999999964
vertex 594.670380545373 381.927249065924 3.17999999999964
endloop
endfacet
facet normal 0.0 0.0 1.0
outer loop
vertex 597.010380545373 383.487249065924 3.17999999999964
vertex 594.670380545373 381.927249065924 3.17999999999964
vertex 597.010380545373 366.327249065924 3.17999999999964
endloop
endfacet
facet normal 1.0 0.0 0.0
outer loop
vertex 578.290380545373 383.487249065924 3.17999999999964
vertex 578.290380545373 366.327249065924 12.1999999999996
vertex 578.290380545373 366.327249065924 3.17999999999964
endloop
endfacet
facet normal 1.0 0.0 0.0
outer loop
vertex 578.290380545373 366.327249065924 12.1999999999996
vertex 578.290380545373 383.487249065924 3.17999999999964
vertex 578.290380545373 383.487249065924 12.1999999999996
endloop
endfacet
facet normal -0.0 1.0 -0.0
outer loop
vertex 578.290380545373 366.327249065924 12.1999999999996
vertex 597.010380545373 366.327249065924 3.17999999999964
vertex 578.290380545373 366.327249065924 3.17999999999964
endloop
endfacet
facet normal -0.0 1.0 -0.0
outer loop
vertex 597.010380545373 366.327249065924 3.17999999999964
vertex 578.290380545373 366.327249065924 12.1999999999996
vertex 597.010380545373 366.327249065924 12.1999999999996
endloop
endfacet
facet normal -1.0 0.0 -0.0
outer loop
vertex 597.010380545373 383.487249065924 12.1999999999996
vertex 597.010380545373 366.327249065924 3.17999999999964
vertex 597.010380545373 366.327249065924 12.1999999999996
endloop
endfacet
facet normal -1.0 0.0 -0.0
outer loop
vertex 597.010380545373 366.327249065924 3.17999999999964
vertex 597.010380545373 383.487249065924 12.1999999999996
vertex 597.010380545373 383.487249065924 3.17999999999964
endloop
endfacet
facet normal 0.0 -1.0 0.0
outer loop
vertex 597.010380545373 383.487249065924 12.1999999999996
vertex 578.290380545373 383.487249065924 3.17999999999964
vertex 597.010380545373 383.487249065924 3.17999999999964
endloop
endfacet
facet normal 0.0 -1.0 0.0
outer loop
vertex 578.290380545373 383.487249065924 3.17999999999964
vertex 597.010380545373 383.487249065924 12.1999999999996
vertex 578.290380545373 383.487249065924 12.1999999999996
endloop
endfacet
facet normal 0.0 0.0 1.0
outer loop
vertex 578.290380545373 347.607249065924 3.17999999999964
vertex 580.630380545373 349.167249065924 3.17999999999964
vertex 578.290380545373 364.767249065924 3.17999999999964
endloop
endfacet
facet normal 0.0 0.0 1.0
outer loop
vertex 580.630380545373 349.167249065924 3.17999999999964
vertex 578.290380545373 347.607249065924 3.17999999999964
vertex 597.010380545373 347.607249065924 3.17999999999964
endloop
endfacet
facet normal 0.0 0.0 1.0
outer loop
vertex 580.630380545373 349.167249065924 3.17999999999964
vertex 597.010380545373 347.607249065924 3.17999999999964
vertex 594.670380545373 349.167249065924 3.17999999999964
endloop
endfacet
facet normal 0.0 0.0 1.0
outer loop
vertex 594.670380545373 349.167249065924 3.17999999999964
vertex 597.010380545373 347.607249065924 3.17999999999964
vertex 594.670380545373 363.207249065924 3.17999999999964
endloop
endfacet
facet normal 0.0 0.0 1.0
outer loop
vertex 578.290380545373 364.767249065924 3.17999999999964
vertex 580.630380545373 363.207249065924 3.17999999999964
vertex 597.010380545373 364.767249065924 3.17999999999964
endloop
endfacet
facet normal 0.0 0.0 1.0
outer loop
vertex 580.630380545373 363.207249065924 3.17999999999964
vertex 578.290380545373 364.767249065924 3.17999999999964
vertex 580.630380545373 349.167249065924 3.17999999999964
endloop
endfacet
facet normal 0.0 0.0 1.0
outer loop
vertex 597.010380545373 364.767249065924 3.17999999999964
vertex 580.630380545373 363.207249065924 3.17999999999964
vertex 594.670380545373 363.207249065924 3.17999999999964
endloop
endfacet
facet normal 0.0 0.0 1.0
outer loop
vertex 597.010380545373 364.767249065924 3.17999999999964
vertex 594.670380545373 363.207249065924 3.17999999999964
vertex 597.010380545373 347.607249065924 3.17999999999964
endloop
endfacet
facet normal 1.0 0.0 0.0
outer loop
vertex 578.290380545373 364.767249065924 3.17999999999964
vertex 578.290380545373 347.607249065924 12.1999999999996
vertex 578.290380545373 347.607249065924 3.17999999999964
endloop
endfacet
facet normal 1.0 0.0 0.0
outer loop
vertex 578.290380545373 347.607249065924 12.1999999999996
vertex 578.290380545373 364.767249065924 3.17999999999964
vertex 578.290380545373 364.767249065924 12.1999999999996
endloop
endfacet
facet normal -0.0 1.0 -0.0
outer loop
vertex 578.290380545373 347.607249065924 12.1999999999996
vertex 597.010380545373 347.607249065924 3.17999999999964
vertex 578.290380545373 347.607249065924 3.17999999999964
endloop
endfacet
facet normal -0.0 1.0 -0.0
outer loop
vertex 597.010380545373 347.607249065924 3.17999999999964
vertex 578.290380545373 347.607249065924 12.1999999999996
vertex 597.010380545373 347.607249065924 12.1999999999996
endloop
endfacet
facet normal -1.0 0.0 -0.0
outer loop
vertex 597.010380545373 364.767249065924 12.1999999999996
vertex 597.010380545373 347.607249065924 3.17999999999964
vertex 597.010380545373 347.607249065924 12.1999999999996
endloop
endfacet
facet normal -1.0 0.0 -0.0
outer loop
vertex 597.010380545373 347.607249065924 3.17999999999964
vertex 597.010380545373 364.767249065924 12.1999999999996
vertex 597.010380545373 364.767249065924 3.17999999999964
endloop
endfacet
facet normal 0.0 -1.0 0.0
outer loop
vertex 597.010380545373 364.767249065924 12.1999999999996
vertex 578.290380545373 364.767249065924 3.17999999999964
vertex 597.010380545373 364.767249065924 3.17999999999964
endloop
endfacet
facet normal 0.0 -1.0 0.0
outer loop
vertex 578.290380545373 364.767249065924 3.17999999999964
vertex 597.010380545373 364.767249065924 12.1999999999996
vertex 578.290380545373 364.767249065924 12.1999999999996
endloop
endfacet
facet normal 0.0 0.0 1.0
outer loop
vertex 578.290380545373 328.887249065924 3.17999999999964
vertex 580.630380545373 330.447249065924 3.17999999999964
vertex 578.290380545373 346.047249065924 3.17999999999964
endloop
endfacet
facet normal 0.0 0.0 1.0
outer loop
vertex 580.630380545373 330.447249065924 3.17999999999964
vertex 578.290380545373 328.887249065924 3.17999999999964
vertex 597.010380545373 328.887249065924 3.17999999999964
endloop
endfacet
facet normal 0.0 0.0 1.0
outer loop
vertex 580.630380545373 330.447249065924 3.17999999999964
vertex 597.010380545373 328.887249065924 3.17999999999964
vertex 594.670380545373 330.447249065924 3.17999999999964
endloop
endfacet
facet normal 0.0 0.0 1.0
outer loop
vertex 594.670380545373 330.447249065924 3.17999999999964
vertex 597.010380545373 328.887249065924 3.17999999999964
vertex 594.670380545373 344.487249065924 3.17999999999964
endloop
endfacet
facet normal 0.0 0.0 1.0
outer loop
vertex 578.290380545373 346.047249065924 3.17999999999964
vertex 580.630380545373 344.487249065924 3.17999999999964
vertex 597.010380545373 346.047249065924 3.17999999999964
endloop
endfacet
facet normal 0.0 0.0 1.0
outer loop
vertex 580.630380545373 344.487249065924 3.17999999999964
vertex 578.290380545373 346.047249065924 3.17999999999964
vertex 580.630380545373 330.447249065924 3.17999999999964
endloop
endfacet
facet normal 0.0 0.0 1.0
outer loop
vertex 597.010380545373 346.047249065924 3.17999999999964
vertex 580.630380545373 344.487249065924 3.17999999999964
vertex 594.670380545373 344.487249065924 3.17999999999964
endloop
endfacet
facet normal 0.0 0.0 1.0
outer loop
vertex 597.010380545373 346.047249065924 3.17999999999964
vertex 594.670380545373 344.487249065924 3.17999999999964
vertex 597.010380545373 328.887249065924 3.17999999999964
endloop
endfacet
facet normal 1.0 0.0 0.0
outer loop
vertex 578.290380545373 346.047249065924 3.17999999999964
vertex 578.290380545373 328.887249065924 12.1999999999996
vertex 578.290380545373 328.887249065924 3.17999999999964
endloop
endfacet
facet normal 1.0 0.0 0.0
outer loop
vertex 578.290380545373 328.887249065924 12.1999999999996
vertex 578.290380545373 346.047249065924 3.17999999999964
vertex 578.290380545373 346.047249065924 12.1999999999996
endloop
endfacet
facet normal -0.0 1.0 -0.0
outer loop
vertex 578.290380545373 328.887249065924 12.1999999999996
vertex 597.010380545373 328.887249065924 3.17999999999964
vertex 578.290380545373 328.887249065924 3.17999999999964
endloop
endfacet
facet normal -0.0 1.0 -0.0
outer loop
vertex 597.010380545373 328.887249065924 3.17999999999964
vertex 578.290380545373 328.887249065924 12.1999999999996
vertex 597.010380545373 328.887249065924 12.1999999999996
endloop
endfacet
facet normal -1.0 0.0 -0.0
outer loop
vertex 597.010380545373 346.047249065924 12.1999999999996
vertex 597.010380545373 328.887249065924 3.17999999999964
vertex 597.010380545373 328.887249065924 12.1999999999996
endloop
endfacet
facet normal -1.0 0.0 -0.0
outer loop
vertex 597.010380545373 328.887249065924 3.17999999999964
vertex 597.010380545373 346.047249065924 12.1999999999996
vertex 597.010380545373 346.047249065924 3.17999999999964
endloop
endfacet
facet normal 0.0 -1.0 0.0
outer loop
vertex 597.010380545373 346.047249065924 12.1999999999996
vertex 578.290380545373 346.047249065924 3.17999999999964
vertex 597.010380545373 346.047249065924 3.17999999999964
endloop
endfacet
facet normal 0.0 -1.0 0.0
outer loop
vertex 578.290380545373 346.047249065924 3.17999999999964
vertex 597.010380545373 346.047249065924 12.1999999999996
vertex 578.290380545373 346.047249065924 12.1999999999996
endloop
endfacet
facet normal -1.25564127394972e-44 -2.76327812055559e-18 -1.0
outer loop
vertex 576.730380545373 423.267249065924 2.19999999999964
vertex 580.630380545373 419.367249065924 2.19999999999964
vertex 576.730380545373 270.387249065924 2.19999999999964
endloop
endfacet
facet normal -1.25564127394972e-44 -2.76327812055559e-18 -1.0
outer loop
vertex 580.630380545373 419.367249065924 2.19999999999964
vertex 576.730380545373 423.267249065924 2.19999999999964
vertex 598.570380545373 423.267249065924 2.19999999999964
endloop
endfacet
facet normal -1.25564127394972e-44 -2.76327812055559e-18 -1.0
outer loop
vertex 580.630380545373 419.367249065924 2.19999999999964
vertex 598.570380545373 423.267249065924 2.19999999999964
vertex 594.670380545373 419.367249065924 2.19999999999964
endloop
endfacet
facet normal -1.25564127394972e-44 -2.76327812055559e-18 -1.0
outer loop
vertex 594.670380545373 419.367249065924 2.19999999999964
vertex 598.570380545373 423.267249065924 2.19999999999964
vertex 594.670380545373 405.327249065924 2.19999999999964
endloop
endfacet
facet normal -1.25564127394972e-44 -2.76327812055559e-18 -1.0
outer loop
vertex 594.670380545373 405.327249065924 2.19999999999964
vertex 598.570380545373 423.267249065924 2.19999999999964
vertex 594.670380545373 400.647249065924 2.19999999999964
endloop
endfacet
facet normal -1.25564127394972e-44 -2.76327812055559e-18 -1.0
outer loop
vertex 594.670380545373 400.647249065924 2.19999999999964
vertex 598.570380545373 423.267249065924 2.19999999999964
vertex 594.670380545373 386.607249065924 2.19999999999964
endloop
endfacet
facet normal -1.25564127394972e-44 -2.76327812055559e-18 -1.0
outer loop
vertex 594.670380545373 386.607249065924 2.19999999999964
vertex 598.570380545373 423.267249065924 2.19999999999964
vertex 594.670380545373 381.927249065924 2.19999999999964
endloop
endfacet
facet normal -1.25564127394972e-44 -2.76327812055559e-18 -1.0
outer loop
vertex 594.670380545373 381.927249065924 2.19999999999964
vertex 598.570380545373 423.267249065924 2.19999999999964
vertex 594.670380545373 367.887249065924 2.19999999999964
endloop
endfacet
facet normal -1.25564127394972e-44 -2.76327812055559e-18 -1.0
outer loop
vertex 594.670380545373 367.887249065924 2.19999999999964
vertex 598.570380545373 423.267249065924 2.19999999999964
vertex 594.670380545373 363.207249065924 2.19999999999964
endloop
endfacet
facet normal -1.25564127394972e-44 -2.76327812055559e-18 -1.0
outer loop
vertex 594.670380545373 363.207249065924 2.19999999999964
vertex 598.570380545373 423.267249065924 2.19999999999964
vertex 594.670380545373 349.167249065924 2.19999999999964
endloop
endfacet
facet normal -1.25564127394972e-44 -2.76327812055559e-18 -1.0
outer loop
vertex 594.670380545373 349.167249065924 2.19999999999964
vertex 598.570380545373 423.267249065924 2.19999999999964
vertex 594.670380545373 344.487249065924 2.19999999999964
endloop
endfacet
facet normal -1.25564127394972e-44 -2.76327812055559e-18 -1.0
outer loop
vertex 594.670380545373 344.487249065924 2.19999999999964
vertex 598.570380545373 423.267249065924 2.19999999999964
vertex 594.670380545373 330.447249065924 2.19999999999964
endloop
endfacet
facet normal -1.25564127394972e-44 -2.76327812055559e-18 -1.0
outer loop
vertex 594.670380545373 330.447249065924 2.19999999999964
vertex 598.570380545373 423.267249065924 2.19999999999964
vertex 594.670380545373 325.767249065924 2.19999999999964
endloop
endfacet
facet normal -1.25564127394972e-44 -2.76327812055559e-18 -1.0
outer loop
vertex 594.670380545373 325.767249065924 2.19999999999964
vertex 598.570380545373 423.267249065924 2.19999999999964
vertex 594.670380545373 311.727249065924 2.19999999999964
endloop
endfacet
facet normal -1.25564127394972e-44 -2.76327812055559e-18 -1.0
outer loop
vertex 594.670380545373 311.727249065924 2.19999999999964
vertex 598.570380545373 423.267249065924 2.19999999999964
vertex 594.670380545373 307.047249065924 2.19999999999963
endloop
endfacet
facet normal -1.25564127394972e-44 -2.76327812055559e-18 -1.0
outer loop
vertex 594.670380545373 307.047249065924 2.19999999999963
vertex 598.570380545373 423.267249065924 2.19999999999964
vertex 594.670380545373 293.007249065924 2.19999999999963
endloop
endfacet
facet normal -1.25564127394972e-44 -2.76327812055559e-18 -1.0
outer loop
vertex 594.670380545373 293.007249065924 2.19999999999963
vertex 598.570380545373 423.267249065924 2.19999999999964
vertex 594.670380545373 288.327249065924 2.19999999999964
endloop
endfacet
facet normal -1.25564127394972e-44 -2.76327812055559e-18 -1.0
outer loop
vertex 594.670380545373 288.327249065924 2.19999999999964
vertex 598.570380545373 423.267249065924 2.19999999999964
vertex 594.670380545373 274.287249065924 2.19999999999964
endloop
endfacet
facet normal -1.25564127394972e-44 -2.76327812055559e-18 -1.0
outer loop
vertex 576.730380545373 270.387249065924 2.19999999999964
vertex 580.630380545373 274.287249065924 2.19999999999964
vertex 598.570380545373 270.387249065924 2.19999999999964
endloop
endfacet
facet normal -1.25564127394972e-44 -2.76327812055559e-18 -1.0
outer loop
vertex 580.630380545373 274.287249065924 2.19999999999964
vertex 576.730380545373 270.387249065924 2.19999999999964
vertex 580.630380545373 419.367249065924 2.19999999999964
endloop
endfacet
facet normal -1.25564127394972e-44 -2.76327812055559e-18 -1.0
outer loop
vertex 580.630380545373 274.287249065924 2.19999999999964
vertex 580.630380545373 419.367249065924 2.19999999999964
vertex 580.630380545373 405.327249065924 2.19999999999964
endloop
endfacet
facet normal -1.25564127394972e-44 -2.76327812055559e-18 -1.0
outer loop
vertex 580.630380545373 274.287249065924 2.19999999999964
vertex 580.630380545373 405.327249065924 2.19999999999964
vertex 580.630380545373 400.647249065924 2.19999999999964
endloop
endfacet
facet normal -1.25564127394972e-44 -2.76327812055559e-18 -1.0
outer loop
vertex 580.630380545373 274.287249065924 2.19999999999964
vertex 580.630380545373 400.647249065924 2.19999999999964
vertex 580.630380545373 386.607249065924 2.19999999999964
endloop
endfacet
facet normal -1.25564127394972e-44 -2.76327812055559e-18 -1.0
outer loop
vertex 580.630380545373 274.287249065924 2.19999999999964
vertex 580.630380545373 386.607249065924 2.19999999999964
vertex 580.630380545373 381.927249065924 2.19999999999964
endloop
endfacet
facet normal -1.25564127394972e-44 -2.76327812055559e-18 -1.0
outer loop
vertex 580.630380545373 274.287249065924 2.19999999999964
vertex 580.630380545373 381.927249065924 2.19999999999964
vertex 580.630380545373 367.887249065924 2.19999999999964
endloop
endfacet
facet normal -1.25564127394972e-44 -2.76327812055559e-18 -1.0
outer loop
vertex 580.630380545373 274.287249065924 2.19999999999964
vertex 580.630380545373 367.887249065924 2.19999999999964
vertex 580.630380545373 363.207249065924 2.19999999999964
endloop
endfacet
facet normal -1.25564127394972e-44 -2.76327812055559e-18 -1.0
outer loop
vertex 580.630380545373 274.287249065924 2.19999999999964
vertex 580.630380545373 363.207249065924 2.19999999999964
vertex 580.630380545373 349.167249065924 2.19999999999964
endloop
endfacet
facet normal -1.25564127394972e-44 -2.76327812055559e-18 -1.0
outer loop
vertex 580.630380545373 274.287249065924 2.19999999999964
vertex 580.630380545373 349.167249065924 2.19999999999964
vertex 580.630380545373 344.487249065924 2.19999999999964
endloop
endfacet
facet normal -1.25564127394972e-44 -2.76327812055559e-18 -1.0
outer loop
vertex 580.630380545373 274.287249065924 2.19999999999964
vertex 580.630380545373 344.487249065924 2.19999999999964
vertex 580.630380545373 330.447249065924 2.19999999999964
endloop
endfacet
facet normal -1.25564127394972e-44 -2.76327812055559e-18 -1.0
outer loop
vertex 580.630380545373 274.287249065924 2.19999999999964
vertex 580.630380545373 330.447249065924 2.19999999999964
vertex 580.630380545373 325.767249065924 2.19999999999964
endloop
endfacet
facet normal -1.25564127394972e-44 -2.76327812055559e-18 -1.0
outer loop
vertex 580.630380545373 274.287249065924 2.19999999999964
vertex 580.630380545373 325.767249065924 2.19999999999964
vertex 580.630380545373 311.727249065924 2.19999999999964
endloop
endfacet
facet normal -1.25564127394972e-44 -2.76327812055559e-18 -1.0
outer loop
vertex 580.630380545373 274.287249065924 2.19999999999964
vertex 580.630380545373 311.727249065924 2.19999999999964
vertex 580.630380545373 307.047249065924 2.19999999999963
endloop
endfacet
facet normal -1.25564127394972e-44 -2.76327812055559e-18 -1.0
outer loop
vertex 580.630380545373 274.287249065924 2.19999999999964
vertex 580.630380545373 307.047249065924 2.19999999999963
vertex 580.630380545373 293.007249065924 2.19999999999963
endloop
endfacet
facet normal -1.25564127394972e-44 -2.76327812055559e-18 -1.0
outer loop
vertex 580.630380545373 274.287249065924 2.19999999999964
vertex 580.630380545373 293.007249065924 2.19999999999963
vertex 580.630380545373 288.327249065924 2.19999999999964
endloop
endfacet
facet normal -1.25564127394972e-44 -2.76327812055559e-18 -1.0
outer loop
vertex 598.570380545373 270.387249065924 2.19999999999964
vertex 580.630380545373 274.287249065924 2.19999999999964
vertex 594.670380545373 274.287249065924 2.19999999999964
endloop
endfacet
facet normal -1.25564127394972e-44 -2.76327812055559e-18 -1.0
outer loop
vertex 598.570380545373 270.387249065924 2.19999999999964
vertex 594.670380545373 274.287249065924 2.19999999999964
vertex 598.570380545373 423.267249065924 2.19999999999964
endloop
endfacet
facet normal -1.25564127394972e-44 -2.76327812055559e-18 -1.0
outer loop
vertex 594.670380545373 293.007249065924 2.19999999999963
vertex 580.630380545373 288.327249065924 2.19999999999964
vertex 580.630380545373 293.007249065924 2.19999999999963
endloop
endfacet
facet normal -1.25564127394972e-44 -2.76327812055559e-18 -1.0
outer loop
vertex 580.630380545373 288.327249065924 2.19999999999964
vertex 594.670380545373 293.007249065924 2.19999999999963
vertex 594.670380545373 288.327249065924 2.19999999999964
endloop
endfacet
facet normal -1.25564127394972e-44 -2.76327812055559e-18 -1.0
outer loop
vertex 594.670380545373 311.727249065924 2.19999999999964
vertex 580.630380545373 307.047249065924 2.19999999999963
vertex 580.630380545373 311.727249065924 2.19999999999964
endloop
endfacet
facet normal -1.25564127394972e-44 -2.76327812055559e-18 -1.0
outer loop
vertex 580.630380545373 307.047249065924 2.19999999999963
vertex 594.670380545373 311.727249065924 2.19999999999964
vertex 594.670380545373 307.047249065924 2.19999999999963
endloop
endfacet
facet normal -1.25564127394972e-44 -2.76327812055559e-18 -1.0
outer loop
vertex 594.670380545373 330.447249065924 2.19999999999964
vertex 580.630380545373 325.767249065924 2.19999999999964
vertex 580.630380545373 330.447249065924 2.19999999999964
endloop
endfacet
facet normal -1.25564127394972e-44 -2.76327812055559e-18 -1.0
outer loop
vertex 580.630380545373 325.767249065924 2.19999999999964
vertex 594.670380545373 330.447249065924 2.19999999999964
vertex 594.670380545373 325.767249065924 2.19999999999964
endloop
endfacet
facet normal -1.25564127394972e-44 -2.76327812055559e-18 -1.0
outer loop
vertex 594.670380545373 349.167249065924 2.19999999999964
vertex 580.630380545373 344.487249065924 2.19999999999964
vertex 580.630380545373 349.167249065924 2.19999999999964
endloop
endfacet
facet normal -1.25564127394972e-44 -2.76327812055559e-18 -1.0
outer loop
vertex 580.630380545373 344.487249065924 2.19999999999964
vertex 594.670380545373 349.167249065924 2.19999999999964
vertex 594.670380545373 344.487249065924 2.19999999999964
endloop
endfacet
facet normal -1.25564127394972e-44 -2.76327812055559e-18 -1.0
outer loop
vertex 594.670380545373 367.887249065924 2.19999999999964
vertex 580.630380545373 363.207249065924 2.19999999999964
vertex 580.630380545373 367.887249065924 2.19999999999964
endloop
endfacet
facet normal -1.25564127394972e-44 -2.76327812055559e-18 -1.0
outer loop
vertex 580.630380545373 363.207249065924 2.19999999999964
vertex 594.670380545373 367.887249065924 2.19999999999964
vertex 594.670380545373 363.207249065924 2.19999999999964
endloop
endfacet
facet normal -1.25564127394972e-44 -2.76327812055559e-18 -1.0
outer loop
vertex 594.670380545373 386.607249065924 2.19999999999964
vertex 580.630380545373 381.927249065924 2.19999999999964
vertex 580.630380545373 386.607249065924 2.19999999999964
endloop
endfacet
facet normal -1.25564127394972e-44 -2.76327812055559e-18 -1.0
outer loop
vertex 580.630380545373 381.927249065924 2.19999999999964
vertex 594.670380545373 386.607249065924 2.19999999999964
vertex 594.670380545373 381.927249065924 2.19999999999964
endloop
endfacet
facet normal -1.25564127394972e-44 -2.76327812055559e-18 -1.0
outer loop
vertex 594.670380545373 405.327249065924 2.19999999999964
vertex 580.630380545373 400.647249065924 2.19999999999964
vertex 580.630380545373 405.327249065924 2.19999999999964
endloop
endfacet
facet normal -1.25564127394972e-44 -2.76327812055559e-18 -1.0
outer loop
vertex 580.630380545373 400.647249065924 2.19999999999964
vertex 594.670380545373 405.327249065924 2.19999999999964
vertex 594.670380545373 400.647249065924 2.19999999999964
endloop
endfacet
facet normal 0.0 0.0 1.0
outer loop
vertex 578.290380545373 271.947249065924 3.17999999999964
vertex 580.630380545373 274.287249065924 3.17999999999964
vertex 578.290380545373 289.887249065924 3.17999999999964
endloop
endfacet
facet normal 0.0 0.0 1.0
outer loop
vertex 580.630380545373 274.287249065924 3.17999999999964
vertex 578.290380545373 271.947249065924 3.17999999999964
vertex 597.010380545373 271.947249065924 3.17999999999964
endloop
endfacet
facet normal 0.0 0.0 1.0
outer loop
vertex 580.630380545373 274.287249065924 3.17999999999964
vertex 597.010380545373 271.947249065924 3.17999999999964
vertex 594.670380545373 274.287249065924 3.17999999999964
endloop
endfacet
facet normal 0.0 0.0 1.0
outer loop
vertex 594.670380545373 274.287249065924 3.17999999999964
vertex 597.010380545373 271.947249065924 3.17999999999964
vertex 594.670380545373 288.327249065924 3.17999999999964
endloop
endfacet
facet normal 0.0 0.0 1.0
outer loop
vertex 578.290380545373 289.887249065924 3.17999999999964
vertex 580.630380545373 288.327249065924 3.17999999999964
vertex 597.010380545373 289.887249065924 3.17999999999964
endloop
endfacet
facet normal 0.0 0.0 1.0
outer loop
vertex 580.630380545373 288.327249065924 3.17999999999964
vertex 578.290380545373 289.887249065924 3.17999999999964
vertex 580.630380545373 274.287249065924 3.17999999999964
endloop
endfacet
facet normal 0.0 0.0 1.0
outer loop
vertex 597.010380545373 289.887249065924 3.17999999999964
vertex 580.630380545373 288.327249065924 3.17999999999964
vertex 594.670380545373 288.327249065924 3.17999999999964
endloop
endfacet
facet normal 0.0 0.0 1.0
outer loop
vertex 597.010380545373 289.887249065924 3.17999999999964
vertex 594.670380545373 288.327249065924 3.17999999999964
vertex 597.010380545373 271.947249065924 3.17999999999964
endloop
endfacet
facet normal -1.0 0.0 -0.0
outer loop
vertex 597.010380545373 289.887249065924 12.1999999999996
vertex 597.010380545373 271.947249065924 3.17999999999964
vertex 597.010380545373 271.947249065924 12.1999999999996
endloop
endfacet
facet normal -1.0 0.0 -0.0
outer loop
vertex 597.010380545373 271.947249065924 3.17999999999964
vertex 597.010380545373 289.887249065924 12.1999999999996
vertex 597.010380545373 289.887249065924 3.17999999999964
endloop
endfacet
facet normal 0.0 -1.0 0.0
outer loop
vertex 597.010380545373 289.887249065924 12.1999999999996
vertex 578.290380545373 289.887249065924 3.17999999999964
vertex 597.010380545373 289.887249065924 3.17999999999964
endloop
endfacet
facet normal 0.0 -1.0 0.0
outer loop
vertex 578.290380545373 289.887249065924 3.17999999999964
vertex 597.010380545373 289.887249065924 12.1999999999996
vertex 578.290380545373 289.887249065924 12.1999999999996
endloop
endfacet
facet normal 1.0 0.0 0.0
outer loop
vertex 578.290380545373 289.887249065924 3.17999999999964
vertex 578.290380545373 271.947249065924 12.1999999999996
vertex 578.290380545373 271.947249065924 3.17999999999964
endloop
endfacet
facet normal 1.0 0.0 0.0
outer loop
vertex 578.290380545373 271.947249065924 12.1999999999996
vertex 578.290380545373 289.887249065924 3.17999999999964
vertex 578.290380545373 289.887249065924 12.1999999999996
endloop
endfacet
facet normal -0.0 1.0 -0.0
outer loop
vertex 578.290380545373 271.947249065924 12.1999999999996
vertex 597.010380545373 271.947249065924 3.17999999999964
vertex 578.290380545373 271.947249065924 3.17999999999964
endloop
endfacet
facet normal -0.0 1.0 -0.0
outer loop
vertex 597.010380545373 271.947249065924 3.17999999999964
vertex 578.290380545373 271.947249065924 12.1999999999996
vertex 597.010380545373 271.947249065924 12.1999999999996
endloop
endfacet
facet normal -0.0 1.0 -0.0
outer loop
vertex 580.630380545373 311.727249065924 3.17999999999964
vertex 594.670380545373 311.727249065924 2.19999999999964
vertex 580.630380545373 311.727249065924 2.19999999999964
endloop
endfacet
facet normal -0.0 1.0 -0.0
outer loop
vertex 594.670380545373 311.727249065924 2.19999999999964
vertex 580.630380545373 311.727249065924 3.17999999999964
vertex 594.670380545373 311.727249065924 3.17999999999964
endloop
endfacet
facet normal -1.0 0.0 0.0
outer loop
vertex 594.670380545373 325.767249065924 3.17999999999964
vertex 594.670380545373 311.727249065924 2.19999999999964
vertex 594.670380545373 311.727249065924 3.17999999999964
endloop
endfacet
facet normal -1.0 0.0 0.0
outer loop
vertex 594.670380545373 311.727249065924 2.19999999999964
vertex 594.670380545373 325.767249065924 3.17999999999964
vertex 594.670380545373 325.767249065924 2.19999999999964
endloop
endfacet
facet normal 0.0 -1.0 0.0
outer loop
vertex 594.670380545373 325.767249065924 3.17999999999964
vertex 580.630380545373 325.767249065924 2.19999999999964
vertex 594.670380545373 325.767249065924 2.19999999999964
endloop
endfacet
facet normal 0.0 -1.0 0.0
outer loop
vertex 580.630380545373 325.767249065924 2.19999999999964
vertex 594.670380545373 325.767249065924 3.17999999999964
vertex 580.630380545373 325.767249065924 3.17999999999964
endloop
endfacet
facet normal 1.0 0.0 0.0
outer loop
vertex 580.630380545373 325.767249065924 2.19999999999964
vertex 580.630380545373 311.727249065924 3.17999999999964
vertex 580.630380545373 311.727249065924 2.19999999999964
endloop
endfacet
facet normal 1.0 0.0 0.0
outer loop
vertex 580.630380545373 311.727249065924 3.17999999999964
vertex 580.630380545373 325.767249065924 2.19999999999964
vertex 580.630380545373 325.767249065924 3.17999999999964
endloop
endfacet
facet normal -1.0 0.0 -0.0
outer loop
vertex 594.670380545373 307.047249065924 3.17999999999964
vertex 594.670380545373 293.007249065924 2.19999999999963
vertex 594.670380545373 293.007249065924 3.17999999999964
endloop
endfacet
facet normal -1.0 0.0 -0.0
outer loop
vertex 594.670380545373 293.007249065924 2.19999999999963
vertex 594.670380545373 307.047249065924 3.17999999999964
vertex 594.670380545373 307.047249065924 2.19999999999963
endloop
endfacet
facet normal 0.0 -1.0 0.0
outer loop
vertex 594.670380545373 307.047249065924 3.17999999999964
vertex 580.630380545373 307.047249065924 2.19999999999963
vertex 594.670380545373 307.047249065924 2.19999999999963
endloop
endfacet
facet normal 0.0 -1.0 0.0
outer loop
vertex 580.630380545373 307.047249065924 2.19999999999963
vertex 594.670380545373 307.047249065924 3.17999999999964
vertex 580.630380545373 307.047249065924 3.17999999999964
endloop
endfacet
facet normal 1.0 0.0 0.0
outer loop
vertex 580.630380545373 307.047249065924 2.19999999999963
vertex 580.630380545373 293.007249065924 3.17999999999964
vertex 580.630380545373 293.007249065924 2.19999999999963
endloop
endfacet
facet normal 1.0 0.0 0.0
outer loop
vertex 580.630380545373 293.007249065924 3.17999999999964
vertex 580.630380545373 307.047249065924 2.19999999999963
vertex 580.630380545373 307.047249065924 3.17999999999964
endloop
endfacet
facet normal -0.0 1.0 -0.0
outer loop
vertex 580.630380545373 293.007249065924 3.17999999999964
vertex 594.670380545373 293.007249065924 2.19999999999963
vertex 580.630380545373 293.007249065924 2.19999999999963
endloop
endfacet
facet normal -0.0 1.0 -0.0
outer loop
vertex 594.670380545373 293.007249065924 2.19999999999963
vertex 580.630380545373 293.007249065924 3.17999999999964
vertex 594.670380545373 293.007249065924 3.17999999999964
endloop
endfacet
facet normal 0.0 0.0 1.0
outer loop
vertex 578.290380545373 310.167249065924 3.17999999999964
vertex 580.630380545373 311.727249065924 3.17999999999964
vertex 578.290380545373 327.327249065924 3.17999999999964
endloop
endfacet
facet normal 0.0 0.0 1.0
outer loop
vertex 580.630380545373 311.727249065924 3.17999999999964
vertex 578.290380545373 310.167249065924 3.17999999999964
vertex 597.010380545373 310.167249065924 3.17999999999964
endloop
endfacet
facet normal 0.0 0.0 1.0
outer loop
vertex 580.630380545373 311.727249065924 3.17999999999964
vertex 597.010380545373 310.167249065924 3.17999999999964
vertex 594.670380545373 311.727249065924 3.17999999999964
endloop
endfacet
facet normal 0.0 0.0 1.0
outer loop
vertex 594.670380545373 311.727249065924 3.17999999999964
vertex 597.010380545373 310.167249065924 3.17999999999964
vertex 594.670380545373 325.767249065924 3.17999999999964
endloop
endfacet
facet normal 0.0 0.0 1.0
outer loop
vertex 578.290380545373 327.327249065924 3.17999999999964
vertex 580.630380545373 325.767249065924 3.17999999999964
vertex 597.010380545373 327.327249065924 3.17999999999964
endloop
endfacet
facet normal 0.0 0.0 1.0
outer loop
vertex 580.630380545373 325.767249065924 3.17999999999964
vertex 578.290380545373 327.327249065924 3.17999999999964
vertex 580.630380545373 311.727249065924 3.17999999999964
endloop
endfacet
facet normal 0.0 0.0 1.0
outer loop
vertex 597.010380545373 327.327249065924 3.17999999999964
vertex 580.630380545373 325.767249065924 3.17999999999964
vertex 594.670380545373 325.767249065924 3.17999999999964
endloop
endfacet
facet normal 0.0 0.0 1.0
outer loop
vertex 597.010380545373 327.327249065924 3.17999999999964
vertex 594.670380545373 325.767249065924 3.17999999999964
vertex 597.010380545373 310.167249065924 3.17999999999964
endloop
endfacet
facet normal 1.0 0.0 0.0
outer loop
vertex 578.290380545373 327.327249065924 3.17999999999964
vertex 578.290380545373 310.167249065924 12.1999999999996
vertex 578.290380545373 310.167249065924 3.17999999999964
endloop
endfacet
facet normal 1.0 0.0 0.0
outer loop
vertex 578.290380545373 310.167249065924 12.1999999999996
vertex 578.290380545373 327.327249065924 3.17999999999964
vertex 578.290380545373 327.327249065924 12.1999999999996
endloop
endfacet
facet normal -0.0 1.0 -0.0
outer loop
vertex 578.290380545373 310.167249065924 12.1999999999996
vertex 597.010380545373 310.167249065924 3.17999999999964
vertex 578.290380545373 310.167249065924 3.17999999999964
endloop
endfacet
facet normal -0.0 1.0 -0.0
outer loop
vertex 597.010380545373 310.167249065924 3.17999999999964
vertex 578.290380545373 310.167249065924 12.1999999999996
vertex 597.010380545373 310.167249065924 12.1999999999996
endloop
endfacet
facet normal -1.0 0.0 -0.0
outer loop
vertex 597.010380545373 327.327249065924 12.1999999999996
vertex 597.010380545373 310.167249065924 3.17999999999964
vertex 597.010380545373 310.167249065924 12.1999999999996
endloop
endfacet
facet normal -1.0 0.0 -0.0
outer loop
vertex 597.010380545373 310.167249065924 3.17999999999964
vertex 597.010380545373 327.327249065924 12.1999999999996
vertex 597.010380545373 327.327249065924 3.17999999999964
endloop
endfacet
facet normal 0.0 -1.0 0.0
outer loop
vertex 597.010380545373 327.327249065924 12.1999999999996
vertex 578.290380545373 327.327249065924 3.17999999999964
vertex 597.010380545373 327.327249065924 3.17999999999964
endloop
endfacet
facet normal 0.0 -1.0 0.0
outer loop
vertex 578.290380545373 327.327249065924 3.17999999999964
vertex 597.010380545373 327.327249065924 12.1999999999996
vertex 578.290380545373 327.327249065924 12.1999999999996
endloop
endfacet
facet normal 0.0 0.0 1.0
outer loop
vertex 578.290380545373 291.447249065924 3.17999999999964
vertex 580.630380545373 293.007249065924 3.17999999999964
vertex 578.290380545373 308.607249065924 3.17999999999964
endloop
endfacet
facet normal 0.0 0.0 1.0
outer loop
vertex 580.630380545373 293.007249065924 3.17999999999964
vertex 578.290380545373 291.447249065924 3.17999999999964
vertex 597.010380545373 291.447249065924 3.17999999999964
endloop
endfacet
facet normal 0.0 0.0 1.0
outer loop
vertex 580.630380545373 293.007249065924 3.17999999999964
vertex 597.010380545373 291.447249065924 3.17999999999964
vertex 594.670380545373 293.007249065924 3.17999999999964
endloop
endfacet
facet normal 0.0 0.0 1.0
outer loop
vertex 594.670380545373 293.007249065924 3.17999999999964
vertex 597.010380545373 291.447249065924 3.17999999999964
vertex 594.670380545373 307.047249065924 3.17999999999964
endloop
endfacet
facet normal 0.0 0.0 1.0
outer loop
vertex 578.290380545373 308.607249065924 3.17999999999964
vertex 580.630380545373 307.047249065924 3.17999999999964
vertex 597.010380545373 308.607249065924 3.17999999999964
endloop
endfacet
facet normal 0.0 0.0 1.0
outer loop
vertex 580.630380545373 307.047249065924 3.17999999999964
vertex 578.290380545373 308.607249065924 3.17999999999964
vertex 580.630380545373 293.007249065924 3.17999999999964
endloop
endfacet
facet normal 0.0 0.0 1.0
outer loop
vertex 597.010380545373 308.607249065924 3.17999999999964
vertex 580.630380545373 307.047249065924 3.17999999999964
vertex 594.670380545373 307.047249065924 3.17999999999964
endloop
endfacet
facet normal 0.0 0.0 1.0
outer loop
vertex 597.010380545373 308.607249065924 3.17999999999964
vertex 594.670380545373 307.047249065924 3.17999999999964
vertex 597.010380545373 291.447249065924 3.17999999999964
endloop
endfacet
facet normal 1.0 0.0 0.0
outer loop
vertex 578.290380545373 308.607249065924 3.17999999999964
vertex 578.290380545373 291.447249065924 12.1999999999996
vertex 578.290380545373 291.447249065924 3.17999999999964
endloop
endfacet
facet normal 1.0 0.0 0.0
outer loop
vertex 578.290380545373 291.447249065924 12.1999999999996
vertex 578.290380545373 308.607249065924 3.17999999999964
vertex 578.290380545373 308.607249065924 12.1999999999996
endloop
endfacet
facet normal -0.0 1.0 -0.0
outer loop
vertex 578.290380545373 291.447249065924 12.1999999999996
vertex 597.010380545373 291.447249065924 3.17999999999964
vertex 578.290380545373 291.447249065924 3.17999999999964
endloop
endfacet
facet normal -0.0 1.0 -0.0
outer loop
vertex 597.010380545373 291.447249065924 3.17999999999964
vertex 578.290380545373 291.447249065924 12.1999999999996
vertex 597.010380545373 291.447249065924 12.1999999999996
endloop
endfacet
facet normal -1.0 0.0 -0.0
outer loop
vertex 597.010380545373 308.607249065924 12.1999999999996
vertex 597.010380545373 291.447249065924 3.17999999999964
vertex 597.010380545373 291.447249065924 12.1999999999996
endloop
endfacet
facet normal -1.0 0.0 -0.0
outer loop
vertex 597.010380545373 291.447249065924 3.17999999999964
vertex 597.010380545373 308.607249065924 12.1999999999996
vertex 597.010380545373 308.607249065924 3.17999999999964
endloop
endfacet
facet normal 0.0 -1.0 0.0
outer loop
vertex 597.010380545373 308.607249065924 12.1999999999996
vertex 578.290380545373 308.607249065924 3.17999999999964
vertex 597.010380545373 308.607249065924 3.17999999999964
endloop
endfacet
facet normal 0.0 -1.0 0.0
outer loop
vertex 578.290380545373 308.607249065924 3.17999999999964
vertex 597.010380545373 308.607249065924 12.1999999999996
vertex 578.290380545373 308.607249065924 12.1999999999996
endloop
endfacet
endsolid Cherry MX demo strip
